<svg id="facebook" xmlns="http://www.w3.org/2000/svg" width="20.46" height="20.447" viewBox="0 0 20.46 20.447">
  <path id="Subtração_1" data-name="Subtração 1" d="M8.632,20.447h0A10.1,10.1,0,0,1,5.22,19.256,10.313,10.313,0,0,1,3,3.013,10.235,10.235,0,0,1,20.46,10.286a10.3,10.3,0,0,1-5.22,8.97,10.1,10.1,0,0,1-3.412,1.191V13.259h2.384l.454-2.973H11.828V8.356a1.67,1.67,0,0,1,.357-1.108,1.641,1.641,0,0,1,1.31-.5h1.29V4.219a15.8,15.8,0,0,0-2.29-.2c-2.42,0-3.864,1.5-3.864,4v2.266h-2.6v2.973h2.6v7.188Z" transform="translate(0 0)" fill="#fff"/>
</svg>
