<svg xmlns="http://www.w3.org/2000/svg" width="50" height="50" viewBox="0 0 50 50">
  <g id="favicon" transform="translate(32 413)">
    <circle id="Elipse_14" data-name="Elipse 14" cx="25" cy="25" r="25" transform="translate(-32 -413)" fill="#21201e"/>
    <g id="Grupo_501" data-name="Grupo 501" transform="translate(-16 -401)">
      <path id="Caminho_213" data-name="Caminho 213" d="M1713.68,1050.728v8.346a4.026,4.026,0,0,1-4.066,4.257,17.74,17.74,0,0,1-4.131-.1,3.809,3.809,0,0,1-3.2-3.5c-.2-1.924-.045-3.854-.1-5.781-.016-.558.313-.4.594-.282a3.918,3.918,0,0,1,2.376,3.036,11.247,11.247,0,0,1,.2,1.973,1.418,1.418,0,0,0,1.547,1.562c.718.015,1.438.015,2.158-.01a1.344,1.344,0,0,0,1.459-1.282,3.952,3.952,0,0,0,.063-.682c0-4.317.023-8.634-.01-12.943a4.357,4.357,0,0,0-1.847-3.819,3.649,3.649,0,0,0-2.179-.454c-1.166,0-1.166,0-1.167-1.155,0-1.212.036-1.287,1.193-1.605a7.3,7.3,0,0,1,4.3-.059,4.042,4.042,0,0,1,2.807,3.925c.007,2.857,0,5.715,0,8.572Z" transform="translate(-1694.706 -1037.93)" fill="#fcfbf8"/>
      <path id="Caminho_214" data-name="Caminho 214" d="M1636.41,1050.575V1042.4a5,5,0,0,1,.25-1.844,3.467,3.467,0,0,1,3.482-2.4,33.088,33.088,0,0,1,5.511.617c.511.09.763.334.691.888a4.516,4.516,0,0,0,0,1.022c.043.444-.113.592-.568.584-1.513-.025-3.028-.013-4.544-.01-1.3,0-1.668.357-1.676,1.638-.009,1.551.009,3.1-.01,4.658a.588.588,0,0,0,.507.666,5.756,5.756,0,0,1,3.206,2.476c.09.139.252.287.16.454s-.308.089-.467.09c-.89.009-1.779,0-2.667.007-.728,0-.728,0-.728.757v10.9c0,.717-.091.784-.785.561a2.8,2.8,0,0,1-1.666-1.53,6.325,6.325,0,0,1-.682-2.9c.007-2.818,0-5.637,0-8.455Z" transform="translate(-1636.41 -1038.133)" fill="#fcfbf8"/>
    </g>
  </g>
</svg>
