<svg id="insta" xmlns="http://www.w3.org/2000/svg" width="20.464" height="20.987" viewBox="0 0 20.464 20.987">
  <path id="Caminho_139" data-name="Caminho 139" d="M5.256,1.144a2.907,2.907,0,1,1-4.111,0,2.907,2.907,0,0,1,4.111,0" transform="translate(7.032 7.293)" fill="#fff"/>
  <path id="Caminho_140" data-name="Caminho 140" d="M14.709,0H5.756A5.837,5.837,0,0,0,0,5.9v9.182a5.837,5.837,0,0,0,5.756,5.9h8.953a5.837,5.837,0,0,0,5.756-5.9V5.9A5.837,5.837,0,0,0,14.709,0ZM10.232,15.74a5.188,5.188,0,0,1-5.116-5.247,5.188,5.188,0,0,1,5.116-5.247,5.188,5.188,0,0,1,5.116,5.247A5.188,5.188,0,0,1,10.232,15.74ZM15.988,5.247a.656.656,0,1,1,.64-.656A.648.648,0,0,1,15.988,5.247Z" fill="#fff"/>
</svg>
