<svg id="logo-differ" xmlns="http://www.w3.org/2000/svg" width="63.14" height="84.739" viewBox="0 0 63.14 84.739">
  <path id="Caminho_213" data-name="Caminho 213" d="M1740.446,1080.51v27.768c0,8.243-5.291,13.727-13.527,14.162-4.592.242-9.2.48-13.742-.348a12.674,12.674,0,0,1-10.647-11.63c-.665-6.4-.151-12.824-.325-19.234-.053-1.856,1.043-1.334,1.977-.937,4.49,1.89,6.951,5.427,7.907,10.1a37.455,37.455,0,0,1,.658,6.565c.091,3.371,1.814,5.133,5.148,5.2,2.389.049,4.785.049,7.181-.034,2.925-.1,4.358-1.4,4.853-4.267a13.191,13.191,0,0,0,.208-2.268c0-14.362.076-28.725-.034-43.064-.038-5.11-1.659-9.634-6.146-12.707-2.222-1.512-4.721-1.512-7.249-1.512-3.878,0-3.878,0-3.882-3.844,0-4.033.121-4.282,3.969-5.34,4.74-1.308,9.532-1.765,14.317-.2a13.45,13.45,0,0,1,9.339,13.058c.023,9.505,0,19.015,0,28.52Z" transform="translate(-1677.32 -1037.93)" fill="#fcfbf8"/>
  <path id="Caminho_214" data-name="Caminho 214" d="M1636.41,1079.466V1052.28a16.638,16.638,0,0,1,.831-6.134c2.03-5.231,5.945-8.02,11.584-7.986a110.035,110.035,0,0,1,18.335,2.052c1.7.3,2.54,1.111,2.3,2.956a14.98,14.98,0,0,0,0,3.4c.144,1.478-.378,1.969-1.89,1.943-5.034-.083-10.073-.042-15.118-.034-4.316,0-5.548,1.187-5.575,5.45-.03,5.159.03,10.322-.034,15.5a1.956,1.956,0,0,0,1.686,2.215,19.151,19.151,0,0,1,10.666,8.24c.3.461.839.956.533,1.512s-1.024.295-1.553.3c-2.959.03-5.919,0-8.874.023-2.423,0-2.423,0-2.423,2.517v36.25c0,2.385-.3,2.608-2.612,1.867a9.333,9.333,0,0,1-5.541-5.091,21.051,21.051,0,0,1-2.268-9.638c.023-9.377,0-18.754,0-28.131Z" transform="translate(-1636.41 -1038.072)" fill="#fcfbf8"/>
</svg>
