<svg xmlns="http://www.w3.org/2000/svg" width="301.969" height="84.739" viewBox="0 0 301.969 84.739">
  <g id="logo2" transform="translate(-169.05 -44.268)">
    <g id="Grupo_499" data-name="Grupo 499" transform="translate(169.05 44.268)">
      <path id="Caminho_213" data-name="Caminho 213" d="M1740.446,1080.51v27.768c0,8.243-5.291,13.727-13.527,14.162-4.592.242-9.2.48-13.742-.348a12.674,12.674,0,0,1-10.647-11.63c-.665-6.4-.151-12.824-.325-19.234-.053-1.856,1.043-1.334,1.977-.937,4.49,1.89,6.951,5.427,7.907,10.1a37.455,37.455,0,0,1,.658,6.565c.091,3.371,1.814,5.133,5.148,5.2,2.389.049,4.785.049,7.181-.034,2.925-.1,4.358-1.4,4.853-4.267a13.191,13.191,0,0,0,.208-2.268c0-14.362.076-28.725-.034-43.064-.038-5.11-1.659-9.634-6.146-12.707-2.222-1.512-4.721-1.512-7.249-1.512-3.878,0-3.878,0-3.882-3.844,0-4.033.121-4.282,3.969-5.34,4.74-1.308,9.532-1.765,14.317-.2a13.45,13.45,0,0,1,9.339,13.058c.023,9.505,0,19.015,0,28.52Z" transform="translate(-1677.32 -1037.93)" fill="#fcfbf8"/>
      <path id="Caminho_214" data-name="Caminho 214" d="M1636.41,1079.466V1052.28a16.638,16.638,0,0,1,.831-6.134c2.03-5.231,5.945-8.02,11.584-7.986a110.035,110.035,0,0,1,18.335,2.052c1.7.3,2.54,1.111,2.3,2.956a14.98,14.98,0,0,0,0,3.4c.144,1.478-.378,1.969-1.89,1.943-5.034-.083-10.073-.042-15.118-.034-4.316,0-5.548,1.187-5.575,5.45-.03,5.159.03,10.322-.034,15.5a1.956,1.956,0,0,0,1.686,2.215,19.151,19.151,0,0,1,10.666,8.24c.3.461.839.956.533,1.512s-1.024.295-1.553.3c-2.959.03-5.919,0-8.874.023-2.423,0-2.423,0-2.423,2.517v36.25c0,2.385-.3,2.608-2.612,1.867a9.333,9.333,0,0,1-5.541-5.091,21.051,21.051,0,0,1-2.268-9.638c.023-9.377,0-18.754,0-28.131Z" transform="translate(-1636.41 -1038.072)" fill="#fcfbf8"/>
    </g>
    <g id="Grupo_500" data-name="Grupo 500" transform="translate(256.158 69.235)">
      <path id="Caminho_215" data-name="Caminho 215" d="M1530.854,1340.081c.12,6.3-1.589,11.9-7.4,15.1-6,3.308-12.446,3.284-18.19-.4-6.309-4.026-7.539-10.608-6.616-17.51,1.68-12.513,14.246-18.387,25.156-11.9,4.734,2.81,6.6,7.314,7.051,12.556C1530.912,1338.645,1530.854,1339.358,1530.854,1340.081Zm-26.424,0a14.989,14.989,0,0,0,1.8,8.281c2.178,3.83,5.61,4.916,9.727,4.572a8.644,8.644,0,0,0,7.8-5.744,19.053,19.053,0,0,0,.45-12.867,9.287,9.287,0,0,0-9.3-7.123,9.528,9.528,0,0,0-9.7,6.979,16.353,16.353,0,0,0-.785,5.9Z" transform="translate(-1498.379 -1322.474)" fill="#fcfbf8"/>
      <path id="Caminho_216" data-name="Caminho 216" d="M1864.5,1356.739c-.273,3.432.445,7.745-.349,12.015a10,10,0,0,1-9.919,8.616,22.288,22.288,0,0,1-9.1-1.551c-1-.407-1.656-.9-1.149-2.145.479-1.154,1-1.967,2.47-1.407a23.6,23.6,0,0,0,5.644.885,6.212,6.212,0,0,0,7.061-7.367c-.268-1.656-1.005-.685-1.589-.287-4.734,3.226-9.871,2.451-13.509-1.915a6.485,6.485,0,0,1-1.168-2.518,21.58,21.58,0,0,1-.321-11.092c1.623-7.223,9.392-10.182,15.467-5.869,1.269.9,2.1,1.68,2.791-.479.383-1.2,1.57-.828,2.489-.708,1.005.125,1.206.862,1.2,1.747C1864.5,1348.4,1864.5,1352.143,1864.5,1356.739Zm-5.266-1.982a16.543,16.543,0,0,0-.689-4.724c-.905-2.653-3.021-3.993-6.132-3.9-2.647.072-3.983,1.182-4.662,4.208a21.06,21.06,0,0,0-.072,8.784c.622,3.126,2.24,4.495,4.945,4.543a5.922,5.922,0,0,0,6.132-4.643A38.131,38.131,0,0,0,1859.234,1354.757Z" transform="translate(-1677.511 -1332.584)" fill="#fcfbf8"/>
      <path id="Caminho_217" data-name="Caminho 217" d="M1590.352,1338.8c-.713,5.491.1,10.177,0,14.868-.024,1.058.34,2.46-1.182,2.752-1.278.249-2.7.512-3.164-1.479-.273-1.168-1.068-.445-1.652-.062-5.634,3.729-10.938,2.992-15.179-1.977-1.1-1.288-.857-2.843-1.182-4.246a17.951,17.951,0,0,1,.239-8.976c2.106-7.515,8.688-9.952,15.165-5.51,1.5,1.024,1.436,0,1.436-.9.043-2.786.1-5.577-.033-8.358-.091-2.073.852-2.566,2.729-2.542,1.762,0,2.906.235,2.872,2.393C1590.29,1329.712,1590.352,1334.638,1590.352,1338.8Zm-5.562,6.85c.091-2.872-.148-4.926-1.12-6.817-1.144-2.216-3.351-3.222-6.276-2.9-2.346.249-3.389,1.819-3.911,3.9-.67,2.671-.359,5.385-.3,8.076.072,3.131,1.494,4.892,4.045,5.381a5.809,5.809,0,0,0,6.7-3.308A10.123,10.123,0,0,0,1584.79,1345.648Z" transform="translate(-1534.431 -1322.297)" fill="#fcfbf8"/>
      <path id="Caminho_218" data-name="Caminho 218" d="M1639.2,1355.18a17.234,17.234,0,0,1-.56,5.213,8.76,8.76,0,0,1-5.577,6.391,14.377,14.377,0,0,1-9.387.163c-3.351-.986-5.266-3.418-6.051-6.783a21.947,21.947,0,0,1,.153-10.661,8.7,8.7,0,0,1,6.826-6.635c5.682-1.321,10.4.23,12.963,4.213C1638.65,1348.765,1639.176,1351.384,1639.2,1355.18Zm-5.266-.321c-.053-.661-.1-1.776-.234-2.872a8.764,8.764,0,0,0-.479-1.838,4.973,4.973,0,0,0-5.218-3.633,5.147,5.147,0,0,0-5.108,4.169,17.793,17.793,0,0,0-.029,8.717,4.9,4.9,0,0,0,4.375,4.093c2.977.316,4.615-.6,5.8-3.078a13.174,13.174,0,0,0,.9-5.558Z" transform="translate(-1560.239 -1332.743)" fill="#fcfbf8"/>
      <path id="Caminho_219" data-name="Caminho 219" d="M1925.512,1358.721v6.223c0,.9.053,1.848-1.168,1.987-1,.11-2.279.512-2.724-.747-.728-2.058-1.436-.809-2.3-.187-2.762,2.03-5.744,1.972-8.837.881-2.958-1.044-4.308-3.317-4.71-6.29-.656-4.969,1.915-8.138,6.936-8.564a48.094,48.094,0,0,1,5.266-.134c1.915.057,2.159-.857,1.6-2.394-.795-2.187-2.542-3.212-5.3-3.14a15.021,15.021,0,0,0-4.189.881c-1.335.426-1.939-.349-2.393-1.335-.541-1.139.321-1.6,1.125-1.977a14.119,14.119,0,0,1,10.685-.852c4.548,1.527,5.672,5.457,5.993,9.694.148,1.982,0,3.978,0,5.969Zm-5.4-1.034c.541-1.632-.531-2.159-2.341-2.039-.957.062-1.915.038-2.872.062-1.915.048-3.47.651-3.748,2.872a4.312,4.312,0,0,0,2.791,4.969C1917.283,1364.7,1919.964,1362.355,1920.112,1357.687Z" transform="translate(-1710.702 -1332.733)" fill="#fcfbf8"/>
      <path id="Caminho_220" data-name="Caminho 220" d="M1816.3,1355.093a19.626,19.626,0,0,1-1.12,7.472c-.584,1.57-2.034,2.48-3.48,3.25a13.235,13.235,0,0,1-8.344,1.651c-6.223-1.034-8.047-3.351-9.014-10.077a22.183,22.183,0,0,1,.991-9.129,7.171,7.171,0,0,1,3.045-3.882c3.916-2.7,8.219-2.6,12.326-.957,3.959,1.58,5.452,5.117,5.486,9.277C1816.2,1353.5,1816.266,1354.3,1816.3,1355.093Zm-5.184-.2a31.264,31.264,0,0,0-.278-3.557c-.618-3.308-2.671-5.079-5.673-5.031-2.671.038-4.7,2.068-5.294,5.218a19.07,19.07,0,0,0,.086,7.348c.56,2.762,2.288,4.38,4.787,4.557,3.059.215,4.725-.9,5.816-3.83A14.329,14.329,0,0,0,1811.12,1354.9Z" transform="translate(-1652.586 -1332.666)" fill="#fcfbf8"/>
      <path id="Caminho_221" data-name="Caminho 221" d="M1753.569,1355.722c.636,1.967-.345,4.279-1.039,6.587a7.287,7.287,0,0,1-4.136,4.361c-4.624,2.245-11.489.957-14.442-2.714-1.316-1.628-1.6-3.571-1.943-5.529a23.384,23.384,0,0,1,.129-7.6,9.38,9.38,0,0,1,9.1-8.2c.958-.053,1.915,0,2.872,0,6.027-.029,9.488,4.7,9.469,10.646Zm-4.955-.125a14.319,14.319,0,0,0-.828-5.783,4.838,4.838,0,0,0-4.82-3.27c-1.943,0-3.829.627-4.7,2.666a14.806,14.806,0,0,0-.3,11.173,4.665,4.665,0,0,0,5.031,3.246,4.915,4.915,0,0,0,4.868-3.5,12.23,12.23,0,0,0,.761-4.514Z" transform="translate(-1620.041 -1332.85)" fill="#fcfbf8"/>
      <path id="Caminho_222" data-name="Caminho 222" d="M1665.439,1355.155v-9.8c0-.957-.033-2.039,1.216-2.264,1.082-.192,2.288-.4,2.872.991.6,1.436,1.331.89,2.164.206,2.81-2.307,5.955-2.173,8.995-.771a7.658,7.658,0,0,1,4.749,7.152c.086,4.7.1,9.4.22,14.1.062,2.47-1.618,2.264-3.236,2.331-1.8.067-2.307-.814-2.293-2.5q.067-6.458-.11-12.925c-.1-3.48-1.652-5.323-4.217-5.3-2.767,0-4.653,2.121-4.72,5.5-.086,4.308-.158,8.616,0,12.925.081,2.446-1.436,2.178-2.963,2.235-1.632.067-2.772-.2-2.681-2.312.144-3.183.038-6.376.038-9.574Z" transform="translate(-1585.463 -1332.79)" fill="#fcfbf8"/>
      <path id="Caminho_223" data-name="Caminho 223" d="M1709.763,1348.68c0-1.594-.033-3.188,0-4.787s.206-3.1-2.211-2.872c-.958.081-1.206-.823-1.2-1.723,0-1.139.479-1.953,1.637-1.881,1.6.091,1.81-.723,1.8-2.035,0-1.723,2.949-4.016,4.629-3.6,1.335.321.957,1.5.9,2.393-.086,1.819-.412,3.629,2.489,3.279,1.005-.12,1.369.876,1.379,1.872,0,1.068-.479,1.8-1.527,1.709-2.393-.206-2.441,1.163-2.393,2.953.115,3.423.077,6.855.053,10.282,0,1.68.479,3,2.235,3.48,1.369.373,1.326,1.436,1.216,2.484-.125,1.206-1.1,1.187-1.977,1.24-4.059.263-6.534-1.733-6.9-5.84-.206-2.293-.038-4.615-.038-6.927Z" transform="translate(-1606.795 -1327.176)" fill="#fcfbf8"/>
      <path id="Caminho_224" data-name="Caminho 224" d="M1780.436,1337.538c0-3.983.038-7.966,0-11.967-.024-1.853-.239-3.322,2.58-3.351s2.762,1.436,2.738,3.427c-.086,7.324-.134,14.653-.072,21.977,0,2.054-.349,4.366,2.226,5.567.871.4.632,1.57.388,2.393s-1.106.756-1.809.771c-3.581.091-5.878-2.159-5.941-5.974-.067-4.308,0-8.616,0-12.925Z" transform="translate(-1645.41 -1322.219)" fill="#fcfbf8"/>
      <path id="Caminho_225" data-name="Caminho 225" d="M1897.47,1355.63c0,3.265-.1,6.534.034,9.789.1,2.312-1.364,2.044-2.815,2.078s-2.623,0-2.59-2.063c.1-6.529.081-13.059,0-19.588,0-1.915.78-2.47,2.585-2.394,1.685.062,2.954.134,2.872,2.394-.144,3.26-.038,6.529-.038,9.794Z" transform="translate(-1703.627 -1333.285)" fill="#fcfbf8"/>
      <path id="Caminho_226" data-name="Caminho 226" d="M1894.806,1322.571c2.393-.589,2.652.637,2.729,2.552.091,2.24-.78,2.829-2.872,2.872s-2.633-.838-2.633-2.82C1892.015,1323,1892.594,1321.934,1894.806,1322.571Z" transform="translate(-1703.591 -1322.307)" fill="#fcfbf8"/>
    </g>
  </g>
</svg>
