<svg xmlns="http://www.w3.org/2000/svg" width="26.741" height="26.741" viewBox="0 0 26.741 26.741">
  <path id="whats" d="M13.374,0h-.007A13.362,13.362,0,0,0,2.545,21.207L.879,26.175l5.139-1.643A13.368,13.368,0,1,0,13.374,0Zm7.78,18.881a3.773,3.773,0,0,1-2.624,1.887c-.7.149-1.611.267-4.683-1.006-3.929-1.628-6.46-5.621-6.657-5.88A7.636,7.636,0,0,1,5.6,9.849,4.269,4.269,0,0,1,6.969,6.6a1.943,1.943,0,0,1,1.367-.48c.165,0,.314.008.448.015.393.017.59.04.849.66.323.777,1.108,2.7,1.2,2.893a.8.8,0,0,1,.057.724,2.311,2.311,0,0,1-.433.613c-.2.227-.384.4-.582.645-.181.212-.384.44-.157.832a11.868,11.868,0,0,0,2.169,2.7,9.83,9.83,0,0,0,3.135,1.934.845.845,0,0,0,.943-.149A16.178,16.178,0,0,0,17.012,15.6a.746.746,0,0,1,.959-.291c.361.125,2.271,1.07,2.664,1.265s.652.291.747.456A3.33,3.33,0,0,1,21.154,18.881Z" transform="translate(0)" fill="#fff"/>
</svg>
